<?xml version="1.0" standalone="no"?>
<!DOCTYPE svg PUBLIC "-//W3C//DTD SVG 20010904//EN"
 "http://www.w3.org/TR/2001/REC-SVG-20010904/DTD/svg10.dtd">
<svg version="1.0" xmlns="http://www.w3.org/2000/svg"
 width="128.000000pt" height="128.000000pt" viewBox="0 0 128.000000 128.000000"
 preserveAspectRatio="xMidYMid meet">

<g transform="translate(0.000000,128.000000) scale(0.100000,-0.100000)"
fill="#000000" stroke="none">
<path d="M865 1004 c20 -15 20 -15 -4 -35 -16 -13 -19 -19 -8 -19 22 0 39 26
32 50 -3 11 -14 20 -23 20 -15 -1 -14 -3 3 -16z"/>
<path d="M821 996 c-9 -11 -9 -16 1 -22 7 -4 10 -4 6 1 -4 4 -3 14 3 22 6 7 9
13 6 13 -2 0 -10 -6 -16 -14z"/>
<path d="M1005 911 c5 -9 1 -19 -10 -28 -17 -12 -17 -13 -2 -13 23 0 33 28 17
43 -10 9 -11 9 -5 -2z"/>
<path d="M950 891 c0 -6 4 -13 10 -16 6 -3 7 1 4 9 -7 18 -14 21 -14 7z"/>
<path d="M1027 871 c-4 -17 -3 -21 5 -13 5 5 8 16 6 23 -3 8 -7 3 -11 -10z"/>
<path d="M995 851 c-3 -5 -2 -12 3 -15 5 -3 9 1 9 9 0 17 -3 19 -12 6z"/>
<path d="M236 831 c-3 -4 -10 -20 -15 -33 -9 -23 -7 -25 10 -21 11 3 19 0 19
-6 0 -7 -4 -10 -9 -7 -5 3 -11 -1 -15 -9 -8 -21 4 -19 31 7 22 21 23 21 43 3
20 -18 20 -18 -8 -42 -20 -19 -22 -22 -6 -14 12 6 24 8 26 5 3 -3 8 5 11 16 4
14 -1 27 -13 38 -11 8 -17 19 -14 24 3 4 2 17 -1 28 -6 20 -49 28 -59 11z m42
-23 c-2 -12 -9 -23 -17 -26 -8 -3 -11 0 -7 7 5 7 1 9 -8 5 -18 -7 -19 -3 -10
20 3 9 15 16 26 16 14 0 19 -6 16 -22z"/>
<path d="M901 801 c-10 -6 -10 -10 -1 -16 13 -8 24 -1 19 14 -3 6 -10 7 -18 2z"/>
<path d="M834 776 c-10 -8 -16 -18 -11 -22 4 -4 7 -2 7 4 0 6 6 9 14 6 7 -3
16 2 19 10 8 20 -3 20 -29 2z"/>
<path d="M780 760 c-12 -7 -12 -10 3 -16 21 -8 29 -3 19 13 -5 8 -13 9 -22 3z"/>
<path d="M720 730 c0 -6 7 -10 15 -10 8 0 15 2 15 4 0 2 -7 6 -15 10 -8 3 -15
1 -15 -4z"/>
<path d="M846 710 c21 -43 24 -47 24 -28 0 9 -9 26 -20 39 l-21 24 17 -35z"/>
<path d="M1094 711 c1 -17 4 -31 9 -31 10 0 9 32 -2 48 -5 9 -8 3 -7 -17z"/>
<path d="M385 719 c3 -9 -1 -22 -10 -29 -14 -12 -18 -11 -27 1 -8 12 -9 12 -5
-1 4 -17 38 -21 49 -5 5 6 8 3 8 -7 0 -10 -5 -18 -11 -18 -5 0 -7 -5 -3 -11 4
-8 9 -7 15 2 13 21 11 43 -6 65 -10 13 -13 14 -10 3z"/>
<path d="M1027 697 c-3 -8 1 -14 8 -14 7 0 11 6 8 14 -3 7 -6 13 -8 13 -2 0
-5 -6 -8 -13z"/>
<path d="M542 681 c-11 -7 -11 -9 1 -14 8 -3 23 1 34 8 17 14 17 14 -2 15 -11
0 -26 -4 -33 -9z"/>
<path d="M490 659 c0 -5 5 -7 10 -4 6 3 10 8 10 11 0 2 -4 4 -10 4 -5 0 -10
-5 -10 -11z"/>
<path d="M751 644 c0 -11 3 -14 6 -6 3 7 2 16 -1 19 -3 4 -6 -2 -5 -13z"/>
<path d="M1041 584 c0 -11 3 -14 6 -6 3 7 2 16 -1 19 -3 4 -6 -2 -5 -13z"/>
<path d="M1060 569 c0 -8 5 -20 12 -27 10 -9 9 -16 -4 -29 -15 -14 -19 -14
-35 -2 -16 13 -17 12 -4 -3 17 -23 3 -23 -21 -1 -18 16 -18 16 -12 -1 4 -11 1
-22 -7 -27 -21 -14 40 1 74 18 30 15 34 38 12 67 -11 15 -15 16 -15 5z"/>
<path d="M511 533 c-2 -25 12 -43 33 -42 20 0 20 1 2 8 -11 4 -23 16 -27 27
-4 10 -8 14 -8 7z"/>
<path d="M467 486 c3 -13 0 -27 -6 -30 -15 -10 -39 15 -34 34 4 13 3 13 -5 1
-11 -16 -5 -41 9 -41 5 0 14 -10 19 -22 l9 -23 0 23 c1 12 5 22 10 22 13 0 21
27 15 45 -10 24 -22 17 -17 -9z"/>
<path d="M298 453 c7 -3 16 -2 19 1 4 3 -2 6 -13 5 -11 0 -14 -3 -6 -6z"/>
<path d="M456 392 c-2 -4 -7 -24 -11 -44 -8 -43 -26 -62 -52 -54 -10 3 -24 2
-31 -2 -9 -7 -8 -13 8 -27 18 -16 20 -16 20 -2 0 10 8 17 20 17 25 0 25 -9 3
-26 -16 -13 -16 -13 7 -10 14 3 26 5 28 5 1 1 -2 10 -8 22 -7 12 -8 25 -2 32
5 7 14 31 19 55 10 40 10 51 -1 34z"/>
<path d="M380 368 c0 -9 5 -20 10 -23 13 -8 13 5 0 25 -8 13 -10 13 -10 -2z"/>
<path d="M537 343 c-4 -3 -7 -11 -7 -17 0 -7 3 -7 8 0 4 7 16 14 27 17 19 5
19 5 -1 6 -11 0 -24 -2 -27 -6z"/>
<path d="M469 307 c11 -14 11 -20 1 -32 -7 -8 -9 -15 -5 -15 4 0 4 -6 -1 -13
-5 -7 -1 -4 9 7 21 22 19 57 -3 64 -13 5 -13 3 -1 -11z"/>
<path d="M312 290 c0 -14 2 -19 5 -12 2 6 2 18 0 25 -3 6 -5 1 -5 -13z"/>
</g>
</svg>
