<?xml version="1.0" encoding="UTF-8"?>
<svg version="1.1" xmlns="http://www.w3.org/2000/svg" width="128" height="128">
<path d="M0 0 C3 2.0625 3 2.0625 5 4 C5.66 4 6.32 4 7 4 C7 4.66 7 5.32 7 6 C7.721875 6.061875 8.44375 6.12375 9.1875 6.1875 C14.87845593 7.83155394 18.19087981 13.037221 21 18 C23.88825002 25.34405454 25.67222301 32.4621939 22.5 40 C22.005 40.99 21.51 41.98 21 43 C20.34 43 19.68 43 19 43 C19.0825 44.010625 19.165 45.02125 19.25 46.0625 C18.93756132 50.98340923 17.76690732 52.96822076 15 57 C11.5647952 59.29013653 10.014669 59.17842973 6 59 C6 58.34 6 57.68 6 57 C3.03 57.66 0.06 58.32 -3 59 C-3 58.34 -3 57.68 -3 57 C-5.01484436 57.67161479 -7.02939638 58.34411249 -9.04296875 59.01953125 C-11.20822906 59.73747093 -13.37821206 60.4412098 -15.55078125 61.13671875 C-23.27075031 63.6250391 -30.7002144 66.43357668 -38 70 C-38 70.99 -38 71.98 -38 73 C-38.7425 73.433125 -39.485 73.86625 -40.25 74.3125 C-43.23895655 75.86348035 -43.23895655 75.86348035 -44.9375 79.125 C-47 82 -47 82 -49.8125 83.1875 C-54.15667254 82.93196044 -56.94727621 81.06175552 -60 78 C-60 77.34 -60 76.68 -60 76 C-61.485 76.495 -61.485 76.495 -63 77 C-67.37783306 77.49560374 -69.4138216 77.36779821 -73.1875 75 C-76.52300046 71.84144917 -78.2426091 68.18844832 -80 64 C-80.350625 63.20078125 -80.70125 62.4015625 -81.0625 61.578125 C-84.56532046 53.28468244 -86.94155701 45.96103236 -85 37 C-83.625 34 -83.625 34 -82 32 C-81.01 32 -80.02 32 -79 32 C-78.67 30.35 -78.34 28.7 -78 27 C-77.34 27 -76.68 27 -76 27 C-75.896875 26.071875 -75.79375 25.14375 -75.6875 24.1875 C-74.74015748 19.79527559 -74.74015748 19.79527559 -72 18 C-68.26304828 17.04588467 -65.66417406 16.90074778 -62 18 C-60.68 18 -59.36 18 -58 18 C-57.67 19.32 -57.34 20.64 -57 22 C-55.16888672 21.41992188 -55.16888672 21.41992188 -53.30078125 20.828125 C-49.89302116 19.74910506 -46.48396605 18.67428486 -43.07421875 17.6015625 C-40.0518393 16.65033387 -37.03309781 15.68970271 -34.01953125 14.7109375 C-32.89933594 14.35257813 -31.77914062 13.99421875 -30.625 13.625 C-29.64789063 13.30789062 -28.67078125 12.99078125 -27.6640625 12.6640625 C-24.99769085 11.9994244 -22.735274 11.87069614 -20 12 C-20 11.34 -20 10.68 -20 10 C-19.34 10 -18.68 10 -18 10 C-17.9175 9.278125 -17.835 8.55625 -17.75 7.8125 C-16.83749583 4.39060935 -15.41828071 2.56053252 -13 0 C-8.58256973 -1.47247676 -4.52187122 -0.96794049 0 0 Z " fill="#A7A6A1" transform="translate(96,24)"/>
<path d="M0 0 C0.66 1.32 1.32 2.64 2 4 C3.98 3.34 5.96 2.68 8 2 C8.33 3.32 8.66 4.64 9 6 C9.66 6 10.32 6 11 6 C11 5.34 11 4.68 11 4 C12.65 4 14.3 4 16 4 C16.33 3.34 16.66 2.68 17 2 C18.06538268 7.63130846 18.52294688 13.29566266 19 19 C19.66 19 20.32 19 21 19 C21.495 21.475 21.495 21.475 22 24 C21.34 24 20.68 24 20 24 C20.495 25.485 20.495 25.485 21 27 C21.99 27.33 22.98 27.66 24 28 C24 26.35 24 24.7 24 23 C25.0625 24.875 25.0625 24.875 26 27 C25.67 27.66 25.34 28.32 25 29 C24.34 29 23.68 29 23 29 C23.3403125 30.2065625 23.3403125 30.2065625 23.6875 31.4375 C24.15258152 36.73942933 22.35852628 41.28294744 20 46 C21.32 46 22.64 46 24 46 C23.505 44.02 23.505 44.02 23 42 C23.99 42.33 24.98 42.66 26 43 C25.67 45.31 25.34 47.62 25 50 C21.25 51.125 21.25 51.125 19 50 C17.33805547 49.64386903 15.671549 49.30791692 14 49 C13.67 48.01 13.34 47.02 13 46 C11.515 46.495 11.515 46.495 10 47 C5.62216694 47.49560374 3.5861784 47.36779821 -0.1875 45 C-3.52300046 41.84144917 -5.2426091 38.18844832 -7 34 C-7.5259375 32.80117187 -7.5259375 32.80117187 -8.0625 31.578125 C-12.01052422 22.23059706 -14.65122142 13.92263371 -10.875 4.0625 C-8.20779374 1.12857312 -5.85219687 1.28015977 -2 1 C-1.34 0.67 -0.68 0.34 0 0 Z " fill="#95938D" transform="translate(23,54)"/>
<path d="M0 0 C1.74584961 1.55029297 1.74584961 1.55029297 3.30053711 3.20263672 C5.11986713 4.83641318 6.48820208 5.20537056 8.87084961 5.61279297 C8.87084961 6.27279297 8.87084961 6.93279297 8.87084961 7.61279297 C7.22084961 7.94279297 5.57084961 8.27279297 3.87084961 8.61279297 C3.37584961 7.62279297 3.37584961 7.62279297 2.87084961 6.61279297 C2.87084961 7.93279297 2.87084961 9.25279297 2.87084961 10.61279297 C6.33584961 10.11779297 6.33584961 10.11779297 9.87084961 9.61279297 C11.19084961 12.91279297 12.51084961 16.21279297 13.87084961 19.61279297 C7.91381836 22.83544922 7.91381836 22.83544922 5.87084961 23.61279297 C4.88084961 23.28279297 3.89084961 22.95279297 2.87084961 22.61279297 C3.53084961 22.28279297 4.19084961 21.95279297 4.87084961 21.61279297 C3.77298536 16.20491912 3.77298536 16.20491912 -0.12915039 12.61279297 C-2.17826158 12.87101976 -2.17826158 12.87101976 -4.32446289 13.69482422 C-5.12239258 13.96746094 -5.92032227 14.24009766 -6.74243164 14.52099609 C-7.57129883 14.81941406 -8.40016602 15.11783203 -9.25415039 15.42529297 C-10.09075195 15.71210937 -10.92735352 15.99892578 -11.78930664 16.29443359 C-15.75897053 17.43463775 -15.75897053 17.43463775 -19.12915039 19.61279297 C-18.13915039 22.58279297 -17.14915039 25.55279297 -16.12915039 28.61279297 C-18.10915039 29.60279297 -18.10915039 29.60279297 -20.12915039 30.61279297 C-19.79915039 31.27279297 -19.46915039 31.93279297 -19.12915039 32.61279297 C-20.87383411 33.31367453 -22.625162 33.99803306 -24.37915039 34.67529297 C-25.35368164 35.05814453 -26.32821289 35.44099609 -27.33227539 35.83544922 C-30.12915039 36.61279297 -30.12915039 36.61279297 -34.12915039 35.61279297 C-31.48915039 34.62279297 -28.84915039 33.63279297 -26.12915039 32.61279297 C-26.64477539 31.68466797 -27.16040039 30.75654297 -27.69165039 29.80029297 C-29.12915039 26.61279297 -29.12915039 26.61279297 -28.12915039 23.61279297 C-26.14191771 22.9089814 -24.14137087 22.24161187 -22.12915039 21.61279297 C-21.79915039 20.95279297 -21.46915039 20.29279297 -21.12915039 19.61279297 C-22.30993164 20.04591797 -23.49071289 20.47904297 -24.70727539 20.92529297 C-26.26444673 21.48812598 -27.8217451 22.05060764 -29.37915039 22.61279297 C-30.15645508 22.89896484 -30.93375977 23.18513672 -31.73461914 23.47998047 C-32.4887207 23.75068359 -33.24282227 24.02138672 -34.01977539 24.30029297 C-34.71103516 24.55166016 -35.40229492 24.80302734 -36.11450195 25.06201172 C-38.12915039 25.61279297 -38.12915039 25.61279297 -42.12915039 25.61279297 C-41.77981445 26.14388672 -41.43047852 26.67498047 -41.07055664 27.22216797 C-40.61551758 27.92857422 -40.16047852 28.63498047 -39.69165039 29.36279297 C-39.23918945 30.05888672 -38.78672852 30.75498047 -38.32055664 31.47216797 C-37.16834949 33.54236311 -36.58238057 35.29975621 -36.12915039 37.61279297 C-36.78915039 37.61279297 -37.44915039 37.61279297 -38.12915039 37.61279297 C-38.12915039 36.95279297 -38.12915039 36.29279297 -38.12915039 35.61279297 C-39.11915039 35.61279297 -40.10915039 35.61279297 -41.12915039 35.61279297 C-45.36547424 25.77471857 -45.36547424 25.77471857 -44.37915039 20.92529297 C-43.76040039 19.78060547 -43.76040039 19.78060547 -43.12915039 18.61279297 C-43.87165039 18.71591797 -44.61415039 18.81904297 -45.37915039 18.92529297 C-48.12915039 18.61279297 -48.12915039 18.61279297 -50.44165039 16.30029297 C-52.12915039 13.61279297 -52.12915039 13.61279297 -52.12915039 10.61279297 C-45.80726366 8.57533919 -39.4732251 6.58005027 -33.12915039 4.61279297 C-32.20521484 4.3246875 -31.2812793 4.03658203 -30.3293457 3.73974609 C-27.57970035 2.889698 -24.82443156 2.06101866 -22.06665039 1.23779297 C-21.22400635 0.97530762 -20.3813623 0.71282227 -19.51318359 0.44238281 C-5.59006265 -3.64209792 -5.59006265 -3.64209792 0 0 Z " fill="#DEDED7" transform="translate(91.129150390625,35.38720703125)"/>
<path d="M0 0 C0.66 0.33 1.32 0.66 2 1 C2.30370506 6.7703962 2.22233835 10.97694316 -1 16 C-6.05666694 19.45137585 -10.98202816 21.09730422 -17 22 C-17.66 22.99 -18.32 23.98 -19 25 C-21.52831328 25.99295845 -23.97079637 26.84532314 -26.5625 27.625 C-31.13574827 28.70844921 -31.13574827 28.70844921 -35 31 C-36.5956376 31.3720248 -38.20210335 31.69819799 -39.8125 32 C-42.91346133 32.58629697 -45.93401901 33.23350475 -49 34 C-49.33 29.38 -49.66 24.76 -50 20 C-49.01 19.67 -48.02 19.34 -47 19 C-46.52901382 18.51947174 -46.05802765 18.03894348 -45.57276917 17.54385376 C-43.73661952 15.74146178 -42.25538848 15.14554462 -39.83569336 14.29833984 C-38.58440895 13.85305435 -38.58440895 13.85305435 -37.30784607 13.39877319 C-36.4109053 13.08928741 -35.51396454 12.77980164 -34.58984375 12.4609375 C-33.2049752 11.97145126 -33.2049752 11.97145126 -31.79212952 11.47207642 C-28.84336094 10.43162418 -25.89062661 9.40300991 -22.9375 8.375 C-19.98173198 7.33734952 -17.02680868 6.29732985 -14.07215881 5.25650024 C-12.23335172 4.6097087 -10.39372066 3.9652541 -8.5532074 3.32333374 C-7.30665123 2.88750473 -7.30665123 2.88750473 -6.03491211 2.44287109 C-5.30227646 2.18766693 -4.56964081 1.93246277 -3.81480408 1.66952515 C-1.93871576 1.01518758 -1.93871576 1.01518758 0 0 Z " fill="#CDCDC8" transform="translate(103,59)"/>
<path d="M0 0 C3 2.0625 3 2.0625 5 4 C5.66 4 6.32 4 7 4 C7 4.66 7 5.32 7 6 C7.721875 6.061875 8.44375 6.12375 9.1875 6.1875 C14.87845593 7.83155394 18.19087981 13.037221 21 18 C23.7215304 24.92013072 25.41808451 31.74574646 23 39 C22.34 39 21.68 39 21 39 C20.505 39.99 20.505 39.99 20 41 C19.505 36.545 19.505 36.545 19 32 C19 33.65 19 35.3 19 37 C18.34 37 17.68 37 17 37 C16.67 36.01 16.34 35.02 16 34 C15.505 34.99 15.505 34.99 15 36 C12.6875 36.25 12.6875 36.25 10 36 C8.1875 34 8.1875 34 7 32 C7.33 31.34 7.66 30.68 8 30 C7.45783893 27.765028 7.45783893 27.765028 6.5625 25.375 C6.13130859 24.14910156 6.13130859 24.14910156 5.69140625 22.8984375 C5.34916016 21.95871094 5.34916016 21.95871094 5 21 C2.69 21.33 0.38 21.66 -2 22 C-2 20.68 -2 19.36 -2 18 C-0.02 18.33 1.96 18.66 4 19 C4 18.34 4 17.68 4 17 C2.948125 16.9071875 2.948125 16.9071875 1.875 16.8125 C-1 16 -1 16 -3.5 13.4375 C-7.47053219 9.78208941 -12.27720771 10.62494661 -17.3671875 10.82421875 C-18.23601562 10.88222656 -19.10484375 10.94023438 -20 11 C-19.34 10.67 -18.68 10.34 -18 10 C-17.87625 9.2575 -17.7525 8.515 -17.625 7.75 C-16.84123484 4.30143329 -15.41041004 2.55219886 -13 0 C-8.58256973 -1.47247676 -4.52187122 -0.96794049 0 0 Z " fill="#9E9C96" transform="translate(96,24)"/>
<path d="M0 0 C0.66 1.32 1.32 2.64 2 4 C3.98 3.34 5.96 2.68 8 2 C8.33 3.32 8.66 4.64 9 6 C10.98 6 12.96 6 15 6 C15 6.99 15 7.98 15 9 C14.01 9.495 14.01 9.495 13 10 C13.66 11.65 14.32 13.3 15 15 C14.01 15.495 14.01 15.495 13 16 C12.67 16.99 12.34 17.98 12 19 C12.969375 19.268125 13.93875 19.53625 14.9375 19.8125 C15.948125 20.204375 16.95875 20.59625 18 21 C18.33 21.99 18.66 22.98 19 24 C18.34 24.33 17.68 24.66 17 25 C17.66 25.66 18.32 26.32 19 27 C19.4140625 29.6015625 19.4140625 29.6015625 19.625 32.625 C19.69976562 33.62789062 19.77453125 34.63078125 19.8515625 35.6640625 C19.92503906 36.82035156 19.92503906 36.82035156 20 38 C18.68 37.67 17.36 37.34 16 37 C16.33 38.32 16.66 39.64 17 41 C11.25 45 11.25 45 9 45 C9 41.7 9 38.4 9 35 C8.67 35 8.34 35 8 35 C7.875 32.625 7.875 32.625 8 30 C8.66 29.34 9.32 28.68 10 28 C9.01 28 8.02 28 7 28 C6.67386719 27.03578125 6.34773438 26.0715625 6.01171875 25.078125 C5.5706888 23.80195323 5.12926154 22.52591871 4.6875 21.25 C4.47416016 20.61578125 4.26082031 19.9815625 4.04101562 19.328125 C2.78462046 15.727709 1.37015599 12.96778844 -1 10 C-1.165 9.154375 -1.33 8.30875 -1.5 7.4375 C-2.06639682 4.67631549 -2.86416357 3.76438662 -5 2 C-3.35 1.34 -1.7 0.68 0 0 Z " fill="#C4C3BD" transform="translate(23,54)"/>
<path d="M0 0 C3.35484037 0.27957003 4.68545224 0.65847349 7.00390625 3.17578125 C9.03644914 6.05157089 10.36958011 8.74053883 11.6875 12 C12.10386719 13.010625 12.52023438 14.02125 12.94921875 15.0625 C14.89144912 20.49208082 15.28129537 25.28032742 15 31 C14.34 31.66 13.68 32.32 13 33 C10.1033323 32.80688882 8.96789763 31.97235629 6.75 30.0625 C5 28 5 28 5 26 C4.37609375 25.75378906 3.7521875 25.50757812 3.109375 25.25390625 C-0.11870959 23.3349893 -0.44223639 20.98355993 -1.46484375 17.5078125 C-2.7902116 11.2969646 -2.42374328 5.90787425 0 0 Z " fill="#CCCCC7" transform="translate(14,63)"/>
<path d="M0 0 C2.54115245 2.54115245 2.43562323 4.55221279 2.75390625 8.02734375 C2.96047055 10.2086702 2.96047055 10.2086702 4 13 C3.01 13.33 2.02 13.66 1 14 C1.12375 15.5159375 1.12375 15.5159375 1.25 17.0625 C0.93756132 21.98340923 -0.23309268 23.96822076 -3 28 C-6.4352048 30.29013653 -7.985331 30.17842973 -12 30 C-12 29.34 -12 28.68 -12 28 C-14.97 28.66 -17.94 29.32 -21 30 C-21 29.34 -21 28.68 -21 28 C-24.96 28.495 -24.96 28.495 -29 29 C-28.67 28.34 -28.34 27.68 -28 27 C-26.3748476 26.52599722 -24.74797305 26.05716666 -23.11328125 25.6171875 C-15.59980177 23.56916035 -15.59980177 23.56916035 -10.4375 18.25 C-9.92098738 14.41304909 -9.8730315 10.87253918 -10 7 C-10 6.01 -10 5.02 -10 4 C-9.34 4.66 -8.68 5.32 -8 6 C-5.42938689 6.64767793 -5.42938689 6.64767793 -3 7 C-2.67 6.01 -2.34 5.02 -2 4 C-1.67 5.32 -1.34 6.64 -1 8 C-0.34 8 0.32 8 1 8 C0.67 5.36 0.34 2.72 0 0 Z " fill="#A4A39D" transform="translate(114,53)"/>
<path d="M0 0 C4.29942535 0.47771393 6.2935135 1.61689187 9 5 C9.33467928 6.33299612 9.66779149 7.66638597 10 9 C10.77339337 10.70577701 11.58884468 12.39289027 12.4375 14.0625 C12.86933594 14.91972656 13.30117188 15.77695313 13.74609375 16.66015625 C15.03842118 19.16153082 15.03842118 19.16153082 17 22 C17.33 22.99 17.66 23.98 18 25 C18.99 25.33 19.98 25.66 21 26 C20.01 26.99 19.02 27.98 18 29 C18.33 29 18.66 29 19 29 C19 32.96 19 36.92 19 41 C18.34 41 17.68 41 17 41 C16.67 42.32 16.34 43.64 16 45 C11.76345733 44.8029515 10.27721051 44.27105028 7.1875 41.25 C5.17685947 38.26276264 4.31123641 36.52734604 4 33 C4.2475 33.61875 4.495 34.2375 4.75 34.875 C6.24391702 37.41465893 7.21539622 38.09909878 10 39 C12.19747131 38.70194993 12.19747131 38.70194993 14 38 C14.75913702 28.32100294 11.74214084 18.4285995 6.3046875 10.390625 C4.95904748 8.74365223 4.95904748 8.74365223 2.1875 8 C1.465625 8 0.74375 8 0 8 C-0.66 10.97 -1.32 13.94 -2 17 C-4.23895075 12.5220985 -4.17451303 9.70737363 -3 5 C-1.4375 2 -1.4375 2 0 0 Z " fill="#A5A49E" transform="translate(14,56)"/>
<path d="M0 0 C-0.33 0.66 -0.66 1.32 -1 2 C-0.4225 2.33773438 0.155 2.67546875 0.75 3.0234375 C1.86375 3.69246094 1.86375 3.69246094 3 4.375 C3.7425 4.81585937 4.485 5.25671875 5.25 5.7109375 C6.11625 6.34902344 6.11625 6.34902344 7 7 C7 7.66 7 8.32 7 9 C7.66 9 8.32 9 9 9 C11.47346304 11.47346304 11.98313144 12.70761168 12.1875 16.25 C12.0946875 17.61125 12.0946875 17.61125 12 19 C11.34 18.34 10.68 17.68 10 17 C9.67 18.65 9.34 20.3 9 22 C6.69 22.33 4.38 22.66 2 23 C2 21.68 2 20.36 2 19 C3.98 19.33 5.96 19.66 8 20 C8 19.34 8 18.68 8 18 C6.948125 17.9071875 6.948125 17.9071875 5.875 17.8125 C3 17 3 17 0.5 14.4375 C-3.47053219 10.78208941 -8.27720771 11.62494661 -13.3671875 11.82421875 C-14.23601562 11.88222656 -15.10484375 11.94023438 -16 12 C-15.34 11.67 -14.68 11.34 -14 11 C-13.87625 10.2575 -13.7525 9.515 -13.625 8.75 C-12.84123484 5.30143329 -11.41041004 3.55219886 -9 1 C-5.8035914 -0.06546953 -3.34252724 -0.07427838 0 0 Z " fill="#96948E" transform="translate(92,23)"/>
<path d="M0 0 C1.1875 3.5625 1.1875 3.5625 2 7 C1.01 7.33 0.02 7.66 -1 8 C-1 8.66 -1 9.32 -1 10 C-3.05348335 10.89595613 -5.11825657 11.76606876 -7.1875 12.625 C-8.33605469 13.11226562 -9.48460938 13.59953125 -10.66796875 14.1015625 C-14 15 -14 15 -16.80859375 14.3046875 C-19.61521332 12.63372326 -20.67010611 10.95531975 -22 8 C-20.694761 5.38952199 -19.64173426 5.31933577 -16.9375 4.375 C-16.20402344 4.11460938 -15.47054687 3.85421875 -14.71484375 3.5859375 C-14.14894531 3.39257812 -13.58304688 3.19921875 -13 3 C-11.02 5.97 -11.02 5.97 -9 9 C-9.66 6.69 -10.32 4.38 -11 2 C-9.73392393 1.46770674 -8.46189588 0.94955456 -7.1875 0.4375 C-6.47980469 0.14746094 -5.77210937 -0.14257812 -5.04296875 -0.44140625 C-3 -1 -3 -1 0 0 Z " fill="#BBC6C8" transform="translate(95,50)"/>
<path d="M0 0 C0.33 1.65 0.66 3.3 1 5 C-1.24916619 5.81487171 -3.49926978 6.62696918 -5.75 7.4375 C-6.38421875 7.66759766 -7.0184375 7.89769531 -7.671875 8.13476562 C-10.75412076 9.24244769 -13.79836438 10.29661036 -17 11 C-16.67 11.66 -16.34 12.32 -16 13 C-16.99 13 -17.98 13 -19 13 C-18.65066406 13.53109375 -18.30132812 14.0621875 -17.94140625 14.609375 C-17.25884766 15.66898438 -17.25884766 15.66898438 -16.5625 16.75 C-15.88380859 17.79414062 -15.88380859 17.79414062 -15.19140625 18.859375 C-14.0391991 20.92957014 -13.45323018 22.68696324 -13 25 C-13.66 25 -14.32 25 -15 25 C-15 24.34 -15 23.68 -15 23 C-15.99 23 -16.98 23 -18 23 C-22.19764481 13.25175048 -22.19764481 13.25175048 -21.4375 8.4375 C-19.0535952 4.39522664 -15.29043882 3.12514108 -11.125 1.3125 C-9.58199219 0.62607422 -9.58199219 0.62607422 -8.0078125 -0.07421875 C-4.80188896 -1.06097703 -3.16652123 -0.96397786 0 0 Z " fill="#E7E8E2" transform="translate(68,48)"/>
<path d="M0 0 C-0.99 0.495 -0.99 0.495 -2 1 C-1.01 2.485 -1.01 2.485 0 4 C0.125 6.6875 0.125 6.6875 0 9 C0.66 9 1.32 9 2 9 C2.66 10.65 3.32 12.3 4 14 C3.443125 14.12375 2.88625 14.2475 2.3125 14.375 C-0.22114364 15.05976855 -2.57921032 15.99133763 -5 17 C-5.66 15.68 -6.32 14.36 -7 13 C-8.65 13.33 -10.3 13.66 -12 14 C-12 12.35 -12 10.7 -12 9 C-11.34 9 -10.68 9 -10 9 C-9.896875 8.071875 -9.79375 7.14375 -9.6875 6.1875 C-8.98597228 2.93496238 -8.57549567 1.95737671 -6 0 C-3.50907189 -1.24546405 -2.58919267 -0.7767578 0 0 Z " fill="#9A9892" transform="translate(30,42)"/>
<path d="M0 0 C3.59482833 0 5.88300778 0.0407008 8.66015625 2.42578125 C14.71414549 9.90423854 17.87054581 19.42399607 17 29 C16.67 29.99 16.34 30.98 16 32 C15.34 32 14.68 32 14 32 C13.67 32.66 13.34 33.32 13 34 C12.97421875 33.42894531 12.9484375 32.85789063 12.921875 32.26953125 C12.08603645 20.32083923 8.87665094 11.03437392 1 2 C0.67 1.34 0.34 0.68 0 0 Z " fill="#DBDBD5" transform="translate(103,31)"/>
<path d="M0 0 C4.20041694 -0.32944447 6.31336519 -0.48827365 9.8125 2 C10.534375 2.66 11.25625 3.32 12 4 C12.66 4 13.32 4 14 4 C14 4.66 14 5.32 14 6 C15.32 6.33 16.64 6.66 18 7 C17.01 7.33 16.02 7.66 15 8 C15.38671875 8.4125 15.7734375 8.825 16.171875 9.25 C24.13163172 18.07666092 25.66546221 25.09045483 26 37 C25.34 37 24.68 37 24 37 C23.78085938 36.11699219 23.56171875 35.23398437 23.3359375 34.32421875 C21.17456865 26.1444041 18.34103708 19.31774822 14 12 C13.32076805 10.67302367 12.6492959 9.34187818 12 8 C11.34 8 10.68 8 10 8 C10 7.34 10 6.68 10 6 C9.46375 5.731875 8.9275 5.46375 8.375 5.1875 C5.58333333 3.79166667 2.79166667 2.39583333 0 1 C0 0.67 0 0.34 0 0 Z " fill="#B4B2AD" transform="translate(89,24)"/>
<path d="M0 0 C1.99954746 -0.04254356 4.00041636 -0.04080783 6 0 C7.73956658 1.73956658 7.37190386 4.1936622 7.5625 6.5625 C7.64628906 7.57441406 7.73007812 8.58632812 7.81640625 9.62890625 C7.87699219 10.41136719 7.93757813 11.19382812 8 12 C6.68 11.67 5.36 11.34 4 11 C4.33 12.32 4.66 13.64 5 15 C-0.75 19 -0.75 19 -3 19 C-3 15.7 -3 12.4 -3 9 C-3.33 9 -3.66 9 -4 9 C-4 7.35 -4 5.7 -4 4 C-2.68 3.34 -1.36 2.68 0 2 C0 1.34 0 0.68 0 0 Z " fill="#B7B5B0" transform="translate(35,80)"/>
<path d="M0 0 C0.66 0.33 1.32 0.66 2 1 C2 1.66 2 2.32 2 3 C1.34 3 0.68 3 0 3 C0 3.66 0 4.32 0 5 C-0.99 5.33 -1.98 5.66 -3 6 C-4.66710346 7.49985609 -4.66710346 7.49985609 -6 9 C-6 8.34 -6 7.68 -6 7 C-7.299375 7.5878125 -7.299375 7.5878125 -8.625 8.1875 C-12 9 -12 9 -15.375 7.625 C-16.674375 6.820625 -16.674375 6.820625 -18 6 C-17.5 4.0625 -17.5 4.0625 -16 2 C-13.30341548 1.31209578 -10.7982981 1.18053536 -8 1 C-8 0.34 -8 -0.32 -8 -1 C-4.57256769 -2.22408297 -3.08891118 -1.85334671 0 0 Z " fill="#E6E7E0" transform="translate(87,42)"/>
<path d="M0 0 C0.33 0.99 0.66 1.98 1 3 C1.99 3.33 2.98 3.66 4 4 C3.01 4.99 2.02 5.98 1 7 C1.33 7 1.66 7 2 7 C2 10.96 2 14.92 2 19 C1.34 19 0.68 19 0 19 C-0.33 20.32 -0.66 21.64 -1 23 C-5.23654267 22.8029515 -6.72278949 22.27105028 -9.8125 19.25 C-11.82314053 16.26276264 -12.68876359 14.52734604 -13 11 C-12.7525 11.61875 -12.505 12.2375 -12.25 12.875 C-10.75608298 15.41465893 -9.78460378 16.09909878 -7 17 C-5.68 16.67 -4.36 16.34 -3 16 C-3 12.04 -3 8.08 -3 4 C-2.01 4 -1.02 4 0 4 C0 2.68 0 1.36 0 0 Z " fill="#A09E98" transform="translate(31,78)"/>
<path d="M0 0 C1.98 0.99 3.96 1.98 6 3 C5.91621094 3.80824219 5.83242187 4.61648437 5.74609375 5.44921875 C5.64425781 6.51785156 5.54242188 7.58648437 5.4375 8.6875 C5.33308594 9.74324219 5.22867188 10.79898438 5.12109375 11.88671875 C5.00677712 14.82576255 5.42056425 17.14177493 6 20 C5.67 20.99 5.34 21.98 5 23 C1.71303767 23.79953138 0.28976808 24.09658936 -3 23 C-3.6875 20.9375 -3.6875 20.9375 -4 19 C-3.01 18.34 -2.02 17.68 -1 17 C1.49883841 11.47625194 1.92656842 5.77970527 0 0 Z " fill="#797671" transform="translate(103,57)"/>
<path d="M0 0 C0.99 0.33 1.98 0.66 3 1 C3.94921875 3.06640625 3.94921875 3.06640625 4.6875 5.5625 C4.93886719 6.38878906 5.19023438 7.21507812 5.44921875 8.06640625 C5.63097656 8.70449219 5.81273438 9.34257813 6 10 C4.02 10.99 4.02 10.99 2 12 C2.33 12.66 2.66 13.32 3 14 C1.25531628 14.70088156 -0.49601161 15.38524009 -2.25 16.0625 C-3.22453125 16.44535156 -4.1990625 16.82820313 -5.203125 17.22265625 C-8 18 -8 18 -12 17 C-8.04 15.515 -8.04 15.515 -4 14 C-4.515625 13.071875 -5.03125 12.14375 -5.5625 11.1875 C-7 8 -7 8 -6 5 C-2.9375 3.8125 -2.9375 3.8125 0 3 C0 2.01 0 1.02 0 0 Z " fill="#DFE1D5" transform="translate(69,54)"/>
<path d="M0 0 C0.66 1.32 1.32 2.64 2 4 C3.98 3.34 5.96 2.68 8 2 C8.33 3.32 8.66 4.64 9 6 C9.66 6 10.32 6 11 6 C10.3125 8.875 10.3125 8.875 9 12 C6.375 13.375 6.375 13.375 4 14 C3.443125 13.13375 2.88625 12.2675 2.3125 11.375 C0.09747202 8.04054927 -2.39604933 5.03794244 -5 2 C-3.35 1.34 -1.7 0.68 0 0 Z " fill="#D1D1CB" transform="translate(23,54)"/>
<path d="M0 0 C-0.33 0.99 -0.66 1.98 -1 3 C-4.0625 4.1875 -4.0625 4.1875 -7 5 C-6.22969878 8.48809191 -6.22969878 8.48809191 -5 12 C-4.01 12.33 -3.02 12.66 -2 13 C-3.98 13.33 -5.96 13.66 -8 14 C-7.67 13.34 -7.34 12.68 -7 12 C-7.60578253 9.98072489 -8.26919734 7.97746603 -9 6 C-13.07964281 7.30155006 -13.07964281 7.30155006 -17 9 C-16.01 10.485 -16.01 10.485 -15 12 C-15.375 14.1875 -15.375 14.1875 -16 16 C-16.83878455 14.71186658 -17.67086783 13.41936744 -18.5 12.125 C-18.9640625 11.40570313 -19.428125 10.68640625 -19.90625 9.9453125 C-21 8 -21 8 -21 6 C-18.06497405 4.99263372 -15.12660539 3.99539496 -12.1875 3 C-11.35412109 2.71382812 -10.52074219 2.42765625 -9.66210938 2.1328125 C-8.45844727 1.72675781 -8.45844727 1.72675781 -7.23046875 1.3125 C-6.49207764 1.06113281 -5.75368652 0.80976562 -4.99291992 0.55078125 C-3 0 -3 0 0 0 Z " fill="#6389BC" transform="translate(70,55)"/>
<path d="M0 0 C2 2 2 2 2.125 4.20703125 C2.08375 5.06683594 2.0425 5.92664062 2 6.8125 C1.90896226 10.76695165 2.29894932 13.38526731 4 17 C4 18.32 4 19.64 4 21 C3.34 21 2.68 21 2 21 C1.67 20.34 1.34 19.68 1 19 C-0.64363134 18.27840576 -2.31050386 17.60648579 -4 17 C-3.67 15.68 -3.34 14.36 -3 13 C-2.34 13 -1.68 13 -1 13 C-1.34786708 11.02463255 -1.34786708 11.02463255 -2 9 C-2.66 8.67 -3.32 8.34 -4 8 C-3.01 7.67 -2.02 7.34 -1 7 C-1.33 6.34 -1.66 5.68 -2 5 C-2.99 4.67 -3.98 4.34 -5 4 C-5 3.34 -5 2.68 -5 2 C-3.35 2 -1.7 2 0 2 C0 1.34 0 0.68 0 0 Z " fill="#A8A6A1" transform="translate(39,56)"/>
<path d="M0 0 C0.66 0.66 1.32 1.32 2 2 C-3.625 5 -3.625 5 -7 5 C-6.505 5.7425 -6.01 6.485 -5.5 7.25 C-4 10 -4 10 -4 14 C-7.01327566 12.49336217 -7.61056618 9.96833589 -9 7 C-11.31 7.33 -13.62 7.66 -16 8 C-16.33 8.99 -16.66 9.98 -17 11 C-16.34 11.66 -15.68 12.32 -15 13 C-14.875 15.625 -14.875 15.625 -15 18 C-15.66 17.67 -16.32 17.34 -17 17 C-17.99 13.7 -18.98 10.4 -20 7 C-10.1 3.535 -10.1 3.535 0 0 Z " fill="#5F85B3" transform="translate(91,47)"/>
<path d="M0 0 C3 3.75 3 3.75 3 6 C3.66 6 4.32 6 5 6 C7.94531725 17.2811208 9.14572586 27.32573926 9 39 C8.34 39 7.68 39 7 39 C6.98582031 38.04222656 6.97164062 37.08445313 6.95703125 36.09765625 C6.58089409 23.69142505 3.78777829 12.46839916 -1 1 C-0.67 0.67 -0.34 0.34 0 0 Z " fill="#B9B8B2" transform="translate(44,59)"/>
<path d="M0 0 C1.65 0 3.3 0 5 0 C5.33 2.31 5.66 4.62 6 7 C6.66 7 7.32 7 8 7 C8.66 8.65 9.32 10.3 10 12 C9.443125 12.12375 8.88625 12.2475 8.3125 12.375 C5.77885636 13.05976855 3.42078968 13.99133763 1 15 C0.87625 14.195625 0.7525 13.39125 0.625 12.5625 C0.315625 11.2940625 0.315625 11.2940625 0 10 C-0.66 9.67 -1.32 9.34 -2 9 C-1.34 8.34 -0.68 7.68 0 7 C0.66 7 1.32 7 2 7 C2.66 5.02 3.32 3.04 4 1 C2.68 0.67 1.36 0.34 0 0 Z " fill="#8E8C86" transform="translate(24,44)"/>
<path d="M0 0 C4.53800446 2.26900223 8.46166336 5.56268219 11 10 C10.6640625 12.22265625 10.6640625 12.22265625 10 14 C8.35 14 6.7 14 5 14 C5 14.66 5 15.32 5 16 C4.34 16 3.68 16 3 16 C3 13 3 10 3 7 C2.34 7 1.68 7 1 7 C0.67 4.69 0.34 2.38 0 0 Z " fill="#A6A59F" transform="translate(29,44)"/>
<path d="M0 0 C0 0.66 0 1.32 0 2 C-6.23830305 4.36776955 -12.50475383 6.63634964 -18.8125 8.8125 C-19.75287109 9.14958984 -20.69324219 9.48667969 -21.66210938 9.83398438 C-22.56380859 10.14271484 -23.46550781 10.45144531 -24.39453125 10.76953125 C-25.61426636 11.19649292 -25.61426636 11.19649292 -26.85864258 11.63208008 C-29 12 -29 12 -32 10 C-30.83984375 9.61328125 -29.6796875 9.2265625 -28.484375 8.828125 C-27.73285156 8.57756348 -26.98132812 8.32700195 -26.20703125 8.06884766 C-24.56393212 7.52125679 -22.92070206 6.97405864 -21.27734375 6.42724609 C-17.58283837 5.19744125 -13.88925167 3.9656614 -10.203125 2.7109375 C-9.14609375 2.35257813 -8.0890625 1.99421875 -7 1.625 C-6.071875 1.30789062 -5.14375 0.99078125 -4.1875 0.6640625 C-2 0 -2 0 0 0 Z " fill="#CECEC9" transform="translate(81,49)"/>
<path d="M0 0 C0.99 2.31 1.98 4.62 3 7 C1.35 7.33 -0.3 7.66 -2 8 C-2.33 7.01 -2.66 6.02 -3 5 C-3 5.99 -3 6.98 -3 8 C-3.99 8.33 -4.98 8.66 -6 9 C-6.99 6.69 -7.98 4.38 -9 2 C-5.86501708 0.14223235 -3.62528568 -0.20140476 0 0 Z " fill="#E3E3DB" transform="translate(61,61)"/>
<path d="M0 0 C2.61437258 3.92155886 2.21703011 7.44236768 2 12 C1.67 12.99 1.34 13.98 1 15 C0.34 15 -0.32 15 -1 15 C-1.33 15.66 -1.66 16.32 -2 17 C-2.06058594 16.33613281 -2.12117188 15.67226563 -2.18359375 14.98828125 C-2.79863507 8.45091919 -2.79863507 8.45091919 -4 2 C-3.01 2 -2.02 2 -1 2 C-0.67 1.34 -0.34 0.68 0 0 Z " fill="#CAC9C4" transform="translate(118,48)"/>
<path d="M0 0 C0.66 1.32 1.32 2.64 2 4 C1.01 4.495 1.01 4.495 0 5 C0.33 5.99 0.66 6.98 1 8 C1.99 8.33 2.98 8.66 4 9 C4 7.35 4 5.7 4 4 C5.0625 5.875 5.0625 5.875 6 8 C5.67 8.66 5.34 9.32 5 10 C4.34 10 3.68 10 3 10 C3.20625 10.9075 3.4125 11.815 3.625 12.75 C4.0127245 16.11027897 3.80411967 17.24075815 2 20 C1.67 18.35 1.34 16.7 1 15 C0.01 15.495 0.01 15.495 -1 16 C-1.12375 14.081875 -1.12375 14.081875 -1.25 12.125 C-1.45869931 9.94666582 -1.45869931 9.94666582 -2 8 C-3.92064793 6.4100567 -3.92064793 6.4100567 -6 6 C-5.195625 5.7525 -4.39125 5.505 -3.5625 5.25 C-0.828919 4.27761141 -0.828919 4.27761141 -0.1875 1.875 C-0.125625 1.25625 -0.06375 0.6375 0 0 Z " fill="#7C7974" transform="translate(43,73)"/>
<path d="M0 0 C0.33 0 0.66 0 1 0 C1 5.33333333 1 10.66666667 1 16 C-0.65 16.66 -2.3 17.32 -4 18 C-4.8284454 15.64050361 -5.17085948 14.44423466 -4.2578125 12.0703125 C-3.88398437 11.42835937 -3.51015625 10.78640625 -3.125 10.125 C-1.29092964 6.74778078 -0.38662561 3.86625609 0 0 Z " fill="#9F9E98" transform="translate(106,61)"/>
<path d="M0 0 C0.66 0.33 1.32 0.66 2 1 C2 2.32 2 3.64 2 5 C-0.64738916 6.4606285 -1.89448334 7 -5 7 C-5 6.34 -5 5.68 -5 5 C-7.64 5.33 -10.28 5.66 -13 6 C-12.67 5.34 -12.34 4.68 -12 4 C-9.68060793 3.2863409 -7.34476551 2.6252708 -5 2 C-4.071875 1.608125 -3.14375 1.21625 -2.1875 0.8125 C-1.465625 0.544375 -0.74375 0.27625 0 0 Z " fill="#95938D" transform="translate(98,76)"/>
<path d="M0 0 C0.33 0 0.66 0 1 0 C1 2.97 1 5.94 1 9 C2.093125 8.484375 3.18625 7.96875 4.3125 7.4375 C8 6 8 6 11 7 C9.02 7.99 7.04 8.98 5 10 C5 10.99 5 11.98 5 13 C3.35 13.66 1.7 14.32 0 15 C0 10.05 0 5.1 0 0 Z " fill="#92908B" transform="translate(53,84)"/>
<path d="M0 0 C0.99 0.33 1.98 0.66 3 1 C2.67 3.31 2.34 5.62 2 8 C-0.60582371 8.93065133 -1.64198224 9.14917407 -4.25 8.0625 C-4.8275 7.711875 -5.405 7.36125 -6 7 C-5.34 6.34 -4.68 5.68 -4 5 C-4.66 4.34 -5.32 3.68 -6 3 C-5.34 3 -4.68 3 -4 3 C-4 2.34 -4 1.68 -4 1 C-3.34 1.33 -2.68 1.66 -2 2 C-2.33 2.66 -2.66 3.32 -3 4 C-1.68 4 -0.36 4 1 4 C0.67 2.68 0.34 1.36 0 0 Z " fill="#726F6A" transform="translate(46,96)"/>
<path d="M0 0 C0 3.15081975 -0.27898465 4.41847698 -2 7 C-4.125 7.75 -4.125 7.75 -6 8 C-6.66 6.35 -7.32 4.7 -8 3 C-5.36 2.01 -2.72 1.02 0 0 Z " fill="#E5E6E0" transform="translate(33,60)"/>
<path d="M0 0 C2.31 0.33 4.62 0.66 7 1 C7 5 7 5 6 8 C6.39397335 10.63804589 6.39397335 10.63804589 7 13 C3.79864928 9.03642291 1.60997725 4.82993175 0 0 Z " fill="#A3A19B" transform="translate(41,52)"/>
<path d="M0 0 C0.33 1.32 0.66 2.64 1 4 C-3.625 6.125 -3.625 6.125 -7 5 C-7.33 4.01 -7.66 3.02 -8 2 C-4.77208445 -0.1519437 -3.71599191 -0.20086443 0 0 Z " fill="#B2CA4C" transform="translate(72,59)"/>
<path d="M0 0 C2.125 0.375 2.125 0.375 4 1 C3.01 1.495 3.01 1.495 2 2 C3.32 2.33 4.64 2.66 6 3 C6 3.99 6 4.98 6 6 C4.02 6.33 2.04 6.66 0 7 C-0.66 5.35 -1.32 3.7 -2 2 C-1.34 1.34 -0.68 0.68 0 0 Z " fill="#9ABF13" transform="translate(78,55)"/>
<path d="M0 0 C1.32 0.99 2.64 1.98 4 3 C3.67 4.32 3.34 5.64 3 7 C1.35 6.67 -0.3 6.34 -2 6 C-2.33 4.68 -2.66 3.36 -3 2 C-2.01 1.34 -1.02 0.68 0 0 Z " fill="#99BF10" transform="translate(90,51)"/>
<path d="M0 0 C2.125 0.375 2.125 0.375 4 1 C3.34 2.98 2.68 4.96 2 7 C-0.31 7.33 -2.62 7.66 -5 8 C-4.34 7.67 -3.68 7.34 -3 7 C-2.65846063 5.33499557 -2.32550502 3.66821323 -2 2 C-1.34 1.34 -0.68 0.68 0 0 Z " fill="#95938D" transform="translate(81,27)"/>
<path d="M0 0 C0.66 0.66 1.32 1.32 2 2 C1.625 5.625 1.625 5.625 1 9 C-0.65 9 -2.3 9 -4 9 C-3.67 8.34 -3.34 7.68 -3 7 C-2.34 7 -1.68 7 -1 7 C-1.33 6.34 -1.66 5.68 -2 5 C-2.99 4.67 -3.98 4.34 -5 4 C-5 3.34 -5 2.68 -5 2 C-3.35 2 -1.7 2 0 2 C0 1.34 0 0.68 0 0 Z " fill="#7D7974" transform="translate(39,56)"/>
<path d="M0 0 C0 0.66 0 1.32 0 2 C-0.99 2 -1.98 2 -3 2 C-3.33 2.99 -3.66 3.98 -4 5 C-3.34 5.66 -2.68 6.32 -2 7 C-1.875 9.625 -1.875 9.625 -2 12 C-4 11 -4 11 -4.8515625 8.71484375 C-5.10679688 7.79832031 -5.36203125 6.88179687 -5.625 5.9375 C-5.88539062 5.01839844 -6.14578125 4.09929688 -6.4140625 3.15234375 C-6.60742188 2.44207031 -6.80078125 1.73179688 -7 1 C-4.53721199 -0.231394 -2.7204945 -0.07159196 0 0 Z " fill="#6589BA" transform="translate(78,53)"/>
<path d="M0 0 C0.66 0.33 1.32 0.66 2 1 C2 1.99 2 2.98 2 4 C2.99 4.33 3.98 4.66 5 5 C4.38125 5.28875 3.7625 5.5775 3.125 5.875 C0.86674235 6.93720042 0.86674235 6.93720042 -1 9 C-3.625 8.625 -3.625 8.625 -6 8 C-6 7.34 -6 6.68 -6 6 C-5.34 6 -4.68 6 -4 6 C-3.67 6.33 -3.34 6.66 -3 7 C-2.01 6.01 -1.02 5.02 0 4 C-0.33 3.34 -0.66 2.68 -1 2 C-0.67 1.34 -0.34 0.68 0 0 Z " fill="#BAB7C2" transform="translate(57,65)"/>
<path d="M0 0 C1.5625 1.75 1.5625 1.75 3 4 C2.6875 6.25 2.6875 6.25 2 8 C1.01 6.35 0.02 4.7 -1 3 C-1.99 3.33 -2.98 3.66 -4 4 C-4 4.99 -4 5.98 -4 7 C-4.99 7 -5.98 7 -7 7 C-7.33 5.68 -7.66 4.36 -8 3 C-5.36 2.01 -2.72 1.02 0 0 Z " fill="#E0E2D3" transform="translate(92,49)"/>
<path d="M0 0 C0.66 0.33 1.32 0.66 2 1 C1.67 1.66 1.34 2.32 1 3 C1.99 3.33 2.98 3.66 4 4 C3.01 4.99 2.02 5.98 1 7 C-0.9375 6.1875 -0.9375 6.1875 -3 5 C-3.33 4.01 -3.66 3.02 -4 2 C-2.125 0.9375 -2.125 0.9375 0 0 Z " fill="#8F8D88" transform="translate(39,97)"/>
<path d="M0 0 C2.54115245 2.54115245 2.43562323 4.55221279 2.75390625 8.02734375 C2.96047055 10.2086702 2.96047055 10.2086702 4 13 C2.02 13.99 2.02 13.99 0 15 C0 10.05 0 5.1 0 0 Z " fill="#9F9D97" transform="translate(114,53)"/>
<path d="M0 0 C0.86625 0.3403125 0.86625 0.3403125 1.75 0.6875 C-0.65436026 4.29404039 -2.19679607 4.54202932 -6.25 5.6875 C-6.25 4.6975 -6.25 3.7075 -6.25 2.6875 C-4.08146295 0.51896295 -3.10906228 -0.43181421 0 0 Z " fill="#C4C3BD" transform="translate(101.25,72.3125)"/>
<path d="M0 0 C2.39489543 0.74324341 3.70777616 1.47057354 4.93359375 3.69140625 C5.67219923 5.44073501 6.34049685 7.21934149 7 9 C6.34 9 5.68 9 5 9 C5 8.34 5 7.68 5 7 C4.01 7 3.02 7 2 7 C1.34 4.69 0.68 2.38 0 0 Z " fill="#DEDFD9" transform="translate(48,64)"/>
<path d="M0 0 C2.52588702 2.36292656 3.88820837 3.66462511 5 7 C4.01 7.495 4.01 7.495 3 8 C2.67 7.34 2.34 6.68 2 6 C1.34 5.690625 0.68 5.38125 0 5.0625 C-2 4 -2 4 -3 1 C-2.01 0.67 -1.02 0.34 0 0 Z " fill="#D8DEBA" transform="translate(81,53)"/>
<path d="M0 0 C0.66 0 1.32 0 2 0 C3.42258812 3.82320557 4.24042276 6.91281305 4 11 C3.34 11 2.68 11 2 11 C1.34 7.37 0.68 3.74 0 0 Z " fill="#C2C0BB" transform="translate(111,50)"/>
<path d="M0 0 C3.33773709 3.64116773 3.97864902 7.28607242 5 12 C2.52140092 9.7991151 1.38789634 7.93627031 0.3125 4.8125 C0.06113281 4.09707031 -0.19023438 3.38164063 -0.44921875 2.64453125 C-0.63097656 2.10183594 -0.81273437 1.55914062 -1 1 C-0.67 0.67 -0.34 0.34 0 0 Z " fill="#C4C3BD" transform="translate(44,59)"/>
<path d="M0 0 C1.32 0 2.64 0 4 0 C4 3 4 3 2.6875 4.6875 C1 6 1 6 -2 6 C-1.49396008 3.83125748 -1.00016187 2.00032373 0 0 Z " fill="#A8A6A1" transform="translate(34,60)"/>
<path d="M0 0 C1.32 0 2.64 0 4 0 C3.625 2.9375 3.625 2.9375 3 6 C2.01 6.495 2.01 6.495 1 7 C0.67 4.69 0.34 2.38 0 0 Z " fill="#A8A6A0" transform="translate(24,45)"/>
<path d="M0 0 C-0.33 0.66 -0.66 1.32 -1 2 C-3.06640625 2.6328125 -3.06640625 2.6328125 -5.5625 3.125 C-6.38878906 3.29257812 -7.21507813 3.46015625 -8.06640625 3.6328125 C-8.70449219 3.75398438 -9.34257813 3.87515625 -10 4 C-9.67 3.01 -9.34 2.02 -9 1 C-2.63157895 -1.31578947 -2.63157895 -1.31578947 0 0 Z " fill="#CDCCC7" transform="translate(93,46)"/>
<path d="M0 0 C0.66 1.32 1.32 2.64 2 4 C1.01 4.99 0.02 5.98 -1 7 C-1.66 6.67 -2.32 6.34 -3 6 C-2.67 4.68 -2.34 3.36 -2 2 C-1.34 2 -0.68 2 0 2 C0 1.34 0 0.68 0 0 Z " fill="#8D8B86" transform="translate(38,67)"/>
<path d="M0 0 C1.875 0.125 1.875 0.125 4 1 C5.25 4.0625 5.25 4.0625 6 7 C5.01 7 4.02 7 3 7 C2.01 4.69 1.02 2.38 0 0 Z " fill="#E6E3DA" transform="translate(52,63)"/>
<path d="M0 0 C1.98 0.495 1.98 0.495 4 1 C3.01 1.495 3.01 1.495 2 2 C2.99 3.485 2.99 3.485 4 5 C3.625 7.1875 3.625 7.1875 3 9 C0.9375 6.1875 0.9375 6.1875 -1 3 C-0.67 2.01 -0.34 1.02 0 0 Z " fill="#6A8EBD" transform="translate(51,62)"/>
<path d="M0 0 C1.65 0 3.3 0 5 0 C4.67 1.32 4.34 2.64 4 4 C2.35 3.67 0.7 3.34 -1 3 C-0.67 2.01 -0.34 1.02 0 0 Z " fill="#D3C4C3" transform="translate(56,61)"/>
<path d="M0 0 C1.65 0 3.3 0 5 0 C4.67 1.32 4.34 2.64 4 4 C2.68 3.67 1.36 3.34 0 3 C0 2.01 0 1.02 0 0 Z " fill="#B4B2AC" transform="translate(105,56)"/>
<path d="M0 0 C1.32 0 2.64 0 4 0 C4 1.65 4 3.3 4 5 C1.525 4.01 1.525 4.01 -1 3 C-0.67 2.01 -0.34 1.02 0 0 Z " fill="#A5A39D" transform="translate(34,42)"/>
<path d="M0 0 C0 0.66 0 1.32 0 2 C-3.47823115 3.15941038 -5.45895578 2.70820884 -9 2 C-8 0 -8 0 -6.1875 -0.6875 C-3.81180233 -1.02688538 -2.26664171 -0.72856341 0 0 Z " fill="#A8A7A1" transform="translate(92,32)"/>
<path d="M0 0 C-3.44450737 2.29633824 -5.93812283 2.54016485 -10 3 C-10 2.34 -10 1.68 -10 1 C-3.71428571 -1.42857143 -3.71428571 -1.42857143 0 0 Z " fill="#5980B2" transform="translate(59,60)"/>
<path d="M0 0 C0.66 0 1.32 0 2 0 C2.66 1.65 3.32 3.3 4 5 C0.25 6.125 0.25 6.125 -2 5 C-1.34 3.35 -0.68 1.7 0 0 Z " fill="#797771" transform="translate(30,51)"/>
<path d="M0 0 C1.32 0.33 2.64 0.66 4 1 C4.33 2.65 4.66 4.3 5 6 C4.01 6 3.02 6 2 6 C1.34 4.02 0.68 2.04 0 0 Z " fill="#BDBCB6" transform="translate(104,35)"/>
<path d="M0 0 C0.86625 0.4640625 0.86625 0.4640625 1.75 0.9375 C3.84294184 1.92583364 5.74535275 2.5168613 8 3 C8 3.99 8 4.98 8 6 C4.08597051 4.73058503 2.20927127 3.48832306 0 0 Z " fill="#C5C4BE" transform="translate(92,34)"/>
</svg>
