<?xml version="1.0" encoding="UTF-8" standalone="no"?>
<!DOCTYPE svg PUBLIC "-//W3C//DTD SVG 1.1//EN" "http://www.w3.org/Graphics/SVG/1.1/DTD/svg11.dtd">
<svg width="100%" height="100%" viewBox="0 0 892 720" version="1.1" xmlns="http://www.w3.org/2000/svg" xmlns:xlink="http://www.w3.org/1999/xlink" xml:space="preserve" xmlns:serif="http://www.serif.com/" style="fill-rule:evenodd;clip-rule:evenodd;stroke-linecap:round;stroke-linejoin:round;stroke-miterlimit:1.5;">
    <g transform="matrix(1,0,0,1,-1010.2,-235.934)">
        <g transform="matrix(1,0,0,1.18371,0,-175.019)">
            <path d="M1789.78,442.528C1802.92,442.528 1815.52,446.937 1824.81,454.784C1834.1,462.632 1839.32,473.275 1839.32,484.373L1839.32,910.865C1839.32,921.963 1834.1,932.607 1824.81,940.454C1815.52,948.302 1802.92,952.71 1789.78,952.71L1122.33,952.71C1109.19,952.71 1096.59,948.302 1087.3,940.454C1078.01,932.607 1072.8,921.963 1072.8,910.865L1072.8,484.373C1072.8,473.275 1078.01,462.632 1087.3,454.784C1096.59,446.937 1109.19,442.528 1122.33,442.528L1789.78,442.528Z" style="fill:rgb(253,206,0);stroke:black;stroke-width:5.48px;"/>
        </g>
        <g transform="matrix(0.948738,0,0,0.786686,74.641,165.427)">
            <path d="M1839.32,442.528L1839.32,911.317C1839.32,934.178 1823.95,952.71 1804.99,952.71C1677.82,952.71 1234.29,952.71 1107.12,952.71C1088.16,952.71 1072.8,934.178 1072.8,911.317C1072.8,789.792 1072.8,442.528 1072.8,442.528L1839.32,442.528Z" style="fill:rgb(255,233,47);stroke:black;stroke-width:6.88px;"/>
        </g>
        <g transform="matrix(0.764859,0,0,0.534052,342.378,2.6014)">
            <rect x="1072.8" y="442.528" width="766.521" height="510.182" style="fill:white;stroke:black;stroke-width:9.1px;"/>
        </g>
        <g transform="matrix(0.922331,0,0,0.0232052,113.09,444.771)">
            <rect x="1072.8" y="442.528" width="766.521" height="510.182" style="fill:rgb(68,46,0);stroke:black;stroke-width:9.2px;"/>
        </g>
        <g transform="matrix(-1,-1.22465e-16,1.22465e-16,-1,2911.64,921.918)">
            <path d="M1072.8,486.987L1072.8,511.398L1013.2,511.398L1013.2,410.52L1072.8,410.52L1072.8,434.887L1102.59,434.887L1102.59,486.987L1072.8,486.987Z" style="fill:rgb(68,46,0);stroke:black;stroke-width:6px;"/>
        </g>
        <g transform="matrix(0.864105,0,0,0.518241,197.871,386.1)">
            <path d="M1785.21,442.528C1815.09,442.528 1839.32,482.92 1839.32,532.745L1839.32,862.494C1839.32,912.319 1815.09,952.71 1785.21,952.71C1644.4,952.71 1267.71,952.71 1126.9,952.71C1097.02,952.71 1072.8,912.319 1072.8,862.494L1072.8,532.745C1072.8,482.92 1097.02,442.528 1126.9,442.528C1267.71,442.528 1644.4,442.528 1785.21,442.528Z" style="fill:rgb(253,206,0);stroke:black;stroke-width:8.42px;"/>
        </g>
        <g transform="matrix(1.02768,0,0,1.66356,-34.1188,-502.506)">
            <path d="M1035.68,766.659L1035.68,757.289L1040.99,757.289L1039.35,766.659L1035.68,766.659Z" style="fill:rgb(235,235,235);stroke:black;stroke-width:4.34px;"/>
        </g>
        <path d="M1030.22,772.877L1013.2,772.877L1022.47,511.398L1013.2,511.398L1013.2,410.52L1072.8,410.52L1072.8,434.887L1102.59,434.887L1102.59,486.987L1072.8,486.987L1072.8,511.398L1062.25,511.398L1035.68,757.289L1042.16,757.289C1046.23,757.289 1050.14,758.907 1053.02,761.789C1055.9,764.67 1057.52,768.578 1057.52,772.653C1057.52,788.657 1057.52,813.492 1057.52,828.827C1057.52,832.447 1056.09,835.918 1053.53,838.477C1050.97,841.037 1047.5,842.475 1043.88,842.475C1043.87,842.475 1043.87,842.475 1043.87,842.475C1040.25,842.475 1036.78,841.037 1034.22,838.477C1031.66,835.918 1030.22,832.447 1030.22,828.827C1030.22,808.561 1030.22,772.877 1030.22,772.877Z" style="fill:rgb(68,46,0);stroke:black;stroke-width:6px;"/>
        <g transform="matrix(1.41259,0,0,1.66356,-338.118,-923.583)">
            <rect x="1035.68" y="757.289" width="26.564" height="51.207" style="fill:rgb(68,46,0);stroke:black;stroke-width:3.89px;"/>
        </g>
        <g transform="matrix(0.621929,0,0,0.641317,501.762,-43.7924)">
            <rect x="1035.68" y="757.289" width="26.564" height="51.207" style="fill:rgb(68,46,0);stroke:black;stroke-width:9.5px;"/>
        </g>
        <g transform="matrix(0.621929,0,0,0.641317,1106.62,-43.7924)">
            <rect x="1035.68" y="757.289" width="26.564" height="51.207" style="fill:rgb(68,46,0);stroke:black;stroke-width:9.5px;"/>
        </g>
        <g transform="matrix(1.41259,0,0,1.66356,285.553,-923.583)">
            <rect x="1035.68" y="757.289" width="26.564" height="51.207" style="fill:rgb(68,46,0);stroke:black;stroke-width:3.89px;"/>
        </g>
        <g transform="matrix(0.063966,0,0,0.0461277,1165.64,428.225)">
            <rect x="1072.8" y="442.528" width="766.521" height="510.182" style="fill:rgb(68,46,0);stroke:black;stroke-width:132.83px;"/>
        </g>
        <g transform="matrix(0.063966,0,0,0.0461277,1562.35,428.225)">
            <rect x="1072.8" y="442.528" width="766.521" height="510.182" style="fill:rgb(68,46,0);stroke:black;stroke-width:132.83px;"/>
        </g>
    </g>
</svg>
